<svg width="54" height="54" viewBox="0 0 54 54" fill="none" xmlns="http://www.w3.org/2000/svg">
<path d="M27 0C12.0897 0 0 12.0897 0 27C0 41.9103 12.0897 54 27 54C41.9103 54 54 41.9103 54 27C54 12.0897 41.9103 0 27 0ZM35.6846 27.4158L22.5221 36.9924C22.4499 37.0443 22.3649 37.0752 22.2763 37.0819C22.1877 37.0885 22.0989 37.0706 22.0198 37.0302C21.9407 36.9897 21.8743 36.9282 21.8279 36.8524C21.7815 36.7766 21.7568 36.6895 21.7567 36.6007V17.4596C21.7564 17.3706 21.7808 17.2832 21.8271 17.2071C21.8734 17.1311 21.9399 17.0694 22.0192 17.0288C22.0984 16.9883 22.1874 16.9704 22.2761 16.9773C22.3649 16.9842 22.45 17.0155 22.5221 17.0679L35.6846 26.6384C35.7468 26.6824 35.7975 26.7406 35.8325 26.8083C35.8675 26.8759 35.8858 26.951 35.8858 27.0271C35.8858 27.1033 35.8675 27.1783 35.8325 27.246C35.7975 27.3136 35.7468 27.3719 35.6846 27.4158Z" fill="#7518C4"/>
</svg>
