<svg width="54" height="54" viewBox="0 0 54 54" fill="none" xmlns="http://www.w3.org/2000/svg">
<path d="M27 54C41.9103 54 54 41.9103 54 27C54 12.0897 41.9103 1.05692e-06 27 2.36042e-06C12.0897 3.66391e-06 -3.66391e-06 12.0897 -2.36042e-06 27C-1.05692e-06 41.9103 12.0897 54 27 54ZM18.3154 26.5842L31.4779 17.0076C31.5501 16.9557 31.6351 16.9248 31.7237 16.9181C31.8123 16.9115 31.9011 16.9294 31.9802 16.9698C32.0593 17.0103 32.1257 17.0718 32.1721 17.1476C32.2185 17.2234 32.2432 17.3105 32.2433 17.3993L32.2433 36.5404C32.2436 36.6294 32.2192 36.7168 32.1729 36.7929C32.1266 36.8689 32.0601 36.9306 31.9808 36.9712C31.9016 37.0117 31.8126 37.0296 31.7239 37.0227C31.6351 37.0158 31.55 36.9845 31.4779 36.9321L18.3154 27.3616C18.2532 27.3176 18.2025 27.2594 18.1675 27.1917C18.1325 27.1241 18.1142 27.049 18.1142 26.9729C18.1142 26.8967 18.1325 26.8217 18.1675 26.754C18.2025 26.6864 18.2532 26.6281 18.3154 26.5842Z" fill="#7518C4"/>
</svg>
