<svg width="38" height="38" viewBox="0 0 38 38" fill="none" xmlns="http://www.w3.org/2000/svg">
<path d="M7.44658 0C3.35154 0 0 3.35147 0 7.44658V30.5546C0 34.6497 3.35147 38 7.44658 38H30.5546C34.6497 38 38 34.6497 38 30.5546V7.44658C38 3.35154 34.6497 0 30.5546 0H7.44658ZM9.31951 6.27076C11.283 6.27076 12.4924 7.55976 12.5297 9.25412C12.5297 10.9111 11.2829 12.2363 9.28153 12.2363H9.24469C7.31858 12.2363 6.07365 10.9111 6.07365 9.25412C6.07365 7.55979 7.35625 6.27076 9.31947 6.27076H9.31951ZM26.2399 14.19C30.0161 14.19 32.8468 16.6581 32.8468 21.962V31.8634H27.1081V22.6258C27.1081 20.3045 26.2776 18.7208 24.2008 18.7208C22.6153 18.7208 21.6703 19.7883 21.2554 20.8194C21.1038 21.1883 21.0666 21.7036 21.0666 22.2196V31.8634H15.3278C15.3278 31.8634 15.4032 16.2152 15.3278 14.595H21.0677V17.0403C21.8304 15.8637 23.1945 14.19 26.2399 14.19V14.19ZM6.41215 14.5962H12.1509V31.8634H6.41215V14.5962Z" fill="#0E9CE7"/>
</svg>
