<svg width="32" height="26" viewBox="0 0 32 26" fill="none" xmlns="http://www.w3.org/2000/svg">
<path d="M1.01457e-08 7.40133L15.4967 15.405C15.6522 15.4853 15.8248 15.5272 16 15.5272C16.1752 15.5272 16.3478 15.4853 16.5033 15.405L32 7.40278V21.3056C32.0001 22.5046 31.5381 23.6583 30.7088 24.5299C29.8796 25.4015 28.7459 25.9249 27.5404 25.9928L27.2727 26H4.72727C3.5198 26.0001 2.35807 25.5413 1.48039 24.7178C0.602716 23.8943 0.0756344 22.7685 0.0072729 21.5713L1.01457e-08 21.3056V7.40133ZM4.72727 1.00753e-08H27.2727C28.4802 -7.85008e-05 29.6419 0.458689 30.5196 1.28219C31.3973 2.1057 31.9244 3.2315 31.9927 4.42867L32 4.69444V4.96022L16 13.2224L1.01457e-08 4.96022V4.69444C-7.90498e-05 3.49536 0.461897 2.34169 1.29116 1.47011C2.12042 0.59853 3.2541 0.0751092 4.45964 0.0072224L4.72727 1.00753e-08H27.2727H4.72727Z" fill="#0E9CE7"/>
</svg>
