<svg width="34" height="34" viewBox="0 0 34 34" fill="none" xmlns="http://www.w3.org/2000/svg">
<path d="M33.3754 26.633L25.6171 19.5791C25.2504 19.2458 24.7685 19.068 24.2731 19.0833C23.7778 19.0986 23.3078 19.3058 22.9623 19.6612L18.3952 24.3581C17.2958 24.1481 15.0857 23.4592 12.8107 21.1899C10.5357 18.913 9.84676 16.6972 9.64255 15.6055L14.3357 11.0365C14.6915 10.6913 14.899 10.2212 14.9143 9.72571C14.9296 9.23023 14.7515 8.74822 14.4177 8.38171L7.36564 0.625413C7.03173 0.257746 6.56764 0.0347284 6.07194 0.00372506C5.57623 -0.0272783 5.08797 0.136175 4.71085 0.45937L0.569287 4.01116C0.23932 4.34232 0.0423728 4.78307 0.0158066 5.2498C-0.0128217 5.72693 -0.558668 17.0293 8.20541 25.7971C15.8511 33.4408 25.4282 34 28.0658 34C28.4513 34 28.688 33.9886 28.751 33.9847C29.2176 33.9586 29.6582 33.7608 29.9877 33.4293L33.5376 29.2859C33.8621 28.91 34.0268 28.4221 33.9965 27.9265C33.9661 27.4308 33.7433 26.9666 33.3754 26.633Z" fill="#0E9CE7"/>
</svg>
