<svg width="79" height="79" viewBox="0 0 79 79" fill="none" xmlns="http://www.w3.org/2000/svg">
<path d="M39.5 0C17.6868 0 0 17.6868 0 39.5C0 61.3132 17.6868 79 39.5 79C61.3132 79 79 61.3132 79 39.5C79 17.6868 61.3132 0 39.5 0ZM52.2052 40.1084L32.949 54.1185C32.8434 54.1944 32.719 54.2397 32.5894 54.2494C32.4597 54.2592 32.3299 54.233 32.2142 54.1738C32.0985 54.1145 32.0013 54.0245 31.9334 53.9137C31.8655 53.8028 31.8295 53.6754 31.8292 53.5454V25.5427C31.8288 25.4125 31.8645 25.2847 31.9322 25.1734C32 25.0622 32.0973 24.9719 32.2132 24.9125C32.3292 24.8532 32.4593 24.8271 32.5892 24.8372C32.719 24.8473 32.8436 24.8931 32.949 24.9696L52.2052 38.971C52.2962 39.0353 52.3704 39.1205 52.4216 39.2195C52.4729 39.3185 52.4996 39.4282 52.4996 39.5397C52.4996 39.6511 52.4729 39.7609 52.4216 39.8599C52.3704 39.9588 52.2962 40.044 52.2052 40.1084Z" fill="black"/>
</svg>
